<?xml version="1.0" encoding="UTF-8"?>
<svg width="600" height="400" viewBox="0 0 600 400" fill="none" xmlns="http://www.w3.org/2000/svg">
  <rect width="600" height="400" rx="32" fill="#f5f9ff"/>
  <g>
    <rect x="120" y="60" width="360" height="240" rx="16" fill="#00bfae" fill-opacity="0.13"/>
    <rect x="140" y="80" width="320" height="200" rx="12" fill="#fff"/>
    <rect x="160" y="110" width="120" height="12" rx="6" fill="#00bfae"/>
    <rect x="160" y="140" width="200" height="12" rx="6" fill="#b2dfdb"/>
    <rect x="160" y="170" width="180" height="12" rx="6" fill="#b2dfdb"/>
    <rect x="160" y="200" width="80" height="12" rx="6" fill="#b2dfdb"/>
    <rect x="160" y="230" width="160" height="12" rx="6" fill="#b2dfdb"/>
    <rect x="320" y="200" width="100" height="12" rx="6" fill="#00bfae"/>
    <circle cx="480" cy="100" r="18" fill="#00bfae" fill-opacity="0.22"/>
    <rect x="380" y="260" width="60" height="20" rx="8" fill="#14b8a6"/>
    <rect x="395" y="266" width="30" height="8" rx="4" fill="#fff"/>
    <ellipse cx="180" cy="300" rx="28" ry="10" fill="#b2dfdb"/>
    <ellipse cx="420" cy="320" rx="40" ry="12" fill="#b2dfdb"/>
  </g>
  <g>
    <circle cx="320" cy="70" r="8" fill="#14b8a6"/>
    <circle cx="340" cy="70" r="6" fill="#00bfae"/>
    <circle cx="360" cy="70" r="4" fill="#b2dfdb"/>
  </g>
  <text x="180" y="270" font-family="Poppins, Arial, sans-serif" font-size="24" fill="#232b36">&lt;code /&gt;</text>
</svg>